HIERARCHY
ROOT Pelvis
{
	OFFSET 0.000000 0.000000 0.000000
	CHANNELS 6 Xposition Yposition Zposition Xrotation Yrotation Zrotation
	JOINT LeftUpLeg_virtual
	{
		OFFSET 0.000000 0.000000 0.000000
		CHANNELS 3 Xrotation Yrotation Zrotation
		JOINT LeftUpLeg
		{
			OFFSET 8.479700 -4.795502 -0.379100
			CHANNELS 3 Xrotation Yrotation Zrotation
			JOINT LeftLeg
			{
				OFFSET 0.024144 -32.555107 0.112900
				CHANNELS 3 Xrotation Yrotation Zrotation
				JOINT LeftFoot
				{
					OFFSET -0.024144 -32.638630 -3.012600
					CHANNELS 3 Xrotation Yrotation Zrotation
					JOINT LeftToeBase
					{
						OFFSET 0.970200 -13.225400 11.864200
						CHANNELS 3 Xrotation Yrotation Zrotation
						End Site
						{
							OFFSET 0 0 0
						}
					}
				}
			}
		}
	}
	JOINT RightUpLeg_virtual
	{
		OFFSET 0.000000 0.000000 0.000000
		CHANNELS 3 Xrotation Yrotation Zrotation
		JOINT RightUpLeg
		{
			OFFSET -8.479700 -4.795502 -0.379100
			CHANNELS 3 Xrotation Yrotation Zrotation
			JOINT RightLeg
			{
				OFFSET -0.023144 -32.555092 0.112900
				CHANNELS 3 Xrotation Yrotation Zrotation
				JOINT RightFoot
				{
					OFFSET 0.023144 -32.638641 -3.012700
					CHANNELS 3 Xrotation Yrotation Zrotation
					JOINT RightToeBase
					{
						OFFSET -0.970200 -13.225400 11.864200
						CHANNELS 3 Xrotation Yrotation Zrotation
						End Site
						{
							OFFSET 0 0 0
						}
					}
				}
			}
		}
	}
	JOINT Hips_virtual
	{
		OFFSET 0.000000 0.000000 0.000000
		CHANNELS 3 Xrotation Yrotation Zrotation
		JOINT Hips
		{
			OFFSET -0.000000 -0.000000 -0.000000
			CHANNELS 3 Xrotation Yrotation Zrotation
			JOINT Spine
			{
				OFFSET 0.000000 7.722000 1.166200
				CHANNELS 3 Xrotation Yrotation Zrotation
				JOINT Spine1
				{
					OFFSET 0.000000 12.024101 0.248800
					CHANNELS 3 Xrotation Yrotation Zrotation
					JOINT Spine2
					{
						OFFSET 0.000000 11.502998 -0.491200
						CHANNELS 3 Xrotation Yrotation Zrotation
						JOINT Neck_virtual
						{
							OFFSET 0.000000 0.000000 0.000000
							CHANNELS 3 Xrotation Yrotation Zrotation
							JOINT Neck
							{
								OFFSET 0.000000 18.430702 -3.123100
								CHANNELS 3 Xrotation Yrotation Zrotation
								JOINT Head
								{
									OFFSET 0.000000 9.051102 1.034000
									CHANNELS 3 Xrotation Yrotation Zrotation
									End Site
									{
										OFFSET 0 0 0
									}
								}
							}
						}
						JOINT LeftShoulder_virtual
						{
							OFFSET 0.000000 0.000000 0.000000
							CHANNELS 3 Xrotation Yrotation Zrotation
							JOINT LeftShoulder
							{
								OFFSET 6.197800 13.665199 -4.064700
								CHANNELS 3 Xrotation Yrotation Zrotation
								JOINT LeftArm
								{
									OFFSET 7.778100 -0.187103 -1.709300
									CHANNELS 3 Xrotation Yrotation Zrotation
									JOINT LeftForeArm
									{
										OFFSET 22.049376 0.000000 0.000000
										CHANNELS 3 Xrotation Yrotation Zrotation
										JOINT LeftHand
										{
											OFFSET 23.009392 0.000000 0.000000
											CHANNELS 3 Xrotation Yrotation Zrotation
											End Site
											{
												OFFSET 0 0 0
											}
										}
									}
								}
							}
						}
						JOINT RightShoulder_virtual
						{
							OFFSET 0.000000 0.000000 0.000000
							CHANNELS 3 Xrotation Yrotation Zrotation
							JOINT RightShoulder
							{
								OFFSET -6.197800 13.665199 -4.064700
								CHANNELS 3 Xrotation Yrotation Zrotation
								JOINT RightArm
								{
									OFFSET -7.778100 -0.187103 -1.709300
									CHANNELS 3 Xrotation Yrotation Zrotation
									JOINT RightForeArm
									{
										OFFSET -22.049376 0.000000 0.000000
										CHANNELS 3 Xrotation Yrotation Zrotation
										JOINT RightHand
										{
											OFFSET -23.009392 0.000000 0.000000
											CHANNELS 3 Xrotation Yrotation Zrotation
											End Site
											{
												OFFSET 0 0 0
											}
										}
									}
								}
							}
						}
					}
				}
			}
		}
	}
}
MOTION
Frames: 4
Frame Time: 0.03333333
0.018763 82.451035 0.246075 0.000000 0.000000 0.000000 -3.753365 -5.223247 -3.509088 -11.794304 14.473442 10.861213 13.105609 1.996022 4.177048 1.435934 0.532000 -7.636398 0.000000 0.000000 0.000000 -3.753365 -5.223247 -3.509088 1.330373 -10.344084 3.344313 5.908901 -9.742033 -3.276661 -2.955792 -1.630716 3.121106 0.000000 0.000000 0.000000 -3.753365 -5.223247 -3.509088 0.000000 0.000000 0.000000 3.302666 1.540383 2.485659 1.151563 0.341256 1.563088 0.000000 0.000000 0.000000 1.124399 0.369601 1.558065 5.626311 -0.076130 0.454683 0.000000 0.000000 0.000000 1.124399 0.369601 1.558065 1.046818 -17.441243 -12.316049 3.916268 -19.989259 -69.765232 -0.000002 -1.459371 0.000002 0.000000 0.000000 0.000000 1.124399 0.369601 1.558065 1.209147 15.345166 14.705933 13.158861 27.555116 58.785157 0.000008 6.693737 0.000007 0.000000 0.000000 0.000000 
0.023869 82.447800 0.237129 0.000000 0.000000 0.000000 -3.774878 -5.369096 -3.545795 -11.813137 14.476914 10.928798 13.210492 2.127026 4.148712 1.359166 0.531942 -7.625446 0.000000 0.000000 0.000000 -3.774878 -5.369096 -3.545795 1.326529 -10.346883 3.399196 5.915984 -9.384276 -3.324185 -2.927834 -1.842025 3.112301 0.000000 0.000000 0.000000 -3.774878 -5.369096 -3.545795 0.000000 0.000000 0.000000 3.302592 1.540314 2.488425 1.151563 0.341255 1.563088 0.000000 0.000000 0.000000 1.124399 0.369602 1.558065 5.641320 -0.076130 0.444040 0.000000 0.000000 0.000000 1.124399 0.369602 1.558065 1.048150 -17.435438 -12.315649 3.889505 -20.129819 -69.771004 0.000003 -1.500352 -0.000005 0.000000 0.000000 0.000000 1.124399 0.369602 1.558065 1.208451 15.358336 14.695763 13.135311 27.547094 58.785130 -0.000004 6.665734 0.000003 0.000000 0.000000 0.000000 
0.028279 82.442848 0.229633 0.000000 0.000000 0.000000 -3.798004 -5.520286 -3.580840 -11.833645 14.480751 10.997114 13.327845 2.262910 4.119699 1.271761 0.532169 -7.616743 0.000000 0.000000 0.000000 -3.798004 -5.520286 -3.580840 1.306851 -10.343349 3.448428 5.957257 -9.043151 -3.370062 -2.917428 -2.042962 3.106352 0.000000 0.000000 0.000000 -3.798004 -5.520286 -3.580840 0.000000 0.000000 0.000000 3.302561 1.540239 2.489567 1.151564 0.341254 1.563088 0.000000 0.000000 0.000000 1.124399 0.369603 1.558065 5.658004 -0.073427 0.433888 0.000000 0.000000 0.000000 1.124399 0.369603 1.558065 1.049205 -17.430819 -12.315330 3.861905 -20.202544 -69.781338 0.000006 -1.523122 -0.000001 0.000000 0.000000 0.000000 1.124399 0.369603 1.558065 1.206564 15.367490 14.694093 13.125059 27.554846 58.770766 -0.000004 6.622060 0.000003 0.000000 0.000000 0.000000 
0.032154 82.437134 0.223763 0.000000 0.000000 0.000000 -3.822485 -5.676646 -3.616514 -11.853882 14.485785 11.068112 13.451898 2.402331 4.089764 1.177847 0.532396 -7.610400 0.000000 0.000000 0.000000 -3.822485 -5.676646 -3.616514 1.282789 -10.339926 3.496086 6.012630 -8.694260 -3.413860 -2.914801 -2.245113 3.099804 0.000000 0.000000 0.000000 -3.822485 -5.676646 -3.616514 0.000000 0.000000 0.000000 3.302528 1.540150 2.490828 1.151564 0.341256 1.563089 0.000000 0.000000 0.000000 1.124399 0.369601 1.558065 5.675496 -0.070797 0.424323 0.000000 0.000000 0.000000 1.124399 0.369601 1.558065 1.050084 -17.426982 -12.315069 3.834562 -20.228952 -69.793933 0.000001 -1.533925 -0.000004 0.000000 0.000000 0.000000 1.124399 0.369601 1.558065 1.203739 15.373919 14.698711 13.129138 27.577807 58.738070 0.000011 6.568094 0.000008 0.000000 0.000000 0.000000 
